<?xml version="1.0" encoding="utf-8"?>
<!-- Generator: Adobe Illustrator 16.0.0, SVG Export Plug-In . SVG Version: 6.00 Build 0)  -->
<!DOCTYPE svg PUBLIC "-//W3C//DTD SVG 1.1//EN" "http://www.w3.org/Graphics/SVG/1.1/DTD/svg11.dtd">
<svg version="1.1" id="图层_1" xmlns="http://www.w3.org/2000/svg" xmlns:xlink="http://www.w3.org/1999/xlink" x="0px" y="0px"
	 width="60px" height="60px" viewBox="0 0 60 60" enable-background="new 0 0 60 60" xml:space="preserve">
<g>
	<g>
		<g>
			<g>
				<defs>
					<circle id="SVGID_1_" cx="30" cy="30.001" r="30"/>
				</defs>
				<clipPath id="SVGID_2_">
					<use xlink:href="#SVGID_1_"  overflow="visible"/>
				</clipPath>
				<circle clip-path="url(#SVGID_2_)" fill="#F0AE47" cx="30" cy="30.001" r="30"/>
				<circle clip-path="url(#SVGID_2_)" fill="#F5B22F" cx="30" cy="30.001" r="18.841"/>
				<g clip-path="url(#SVGID_2_)">
					<g>
						<polyline fill="#E45E5D" points="35.505,0.209 24.496,59.791 30,60.299 30,-0.296 						"/>
						<polyline fill="#E45E5D" points="0.208,24.498 59.792,35.504 60.296,30.001 -0.296,30.001 						"/>
						<polyline fill="#E45E5D" points="54.958,12.826 5.042,47.174 8.578,51.425 51.423,8.578 						"/>
						<polyline fill="#E45E5D" points="12.826,5.043 47.175,54.96 51.423,51.425 8.578,8.578 						"/>
						<polyline fill="#E45E5D" points="46.468,4.572 13.532,55.429 18.424,57.997 41.575,2.004 						"/>
						<polyline fill="#E45E5D" points="4.57,13.532 55.43,46.471 57.998,41.574 2.002,18.425 						"/>
						<polyline fill="#E45E5D" points="0.375,36.334 59.626,23.666 57.981,18.39 2.018,41.613 						"/>
						<polyline fill="#E45E5D" points="23.666,0.375 36.335,59.628 41.611,57.98 18.389,2.019 						"/>
					</g>
				</g>
			</g>
			<circle fill="#F6F0A7" cx="30" cy="30.001" r="23.672"/>
		</g>
	</g>
	<path fill="#E45E5D" d="M42.015,15.855L33.22,27.584h6.93v3.309h-8.072v4.556h8.072v3.347h-8.072v6.634h-4.154v-6.634h-8.373
		v-3.347h8.373v-4.556h-8.373v-3.309h7.145l-8.711-11.729h4.685c4.069,7.432,6.54,8.912,7.415,10.904h0.085l7.416-10.904H42.015
		L42.015,15.855z M42.015,15.855"/>
</g>
</svg>
